<svg xmlns="http://www.w3.org/2000/svg" viewBox="0 0 20 20">
	<defs>
		<!-- Définition des couleurs principales avec des tons modernes et harmonieux -->
		<linearGradient id="personGradient" x1="0%" y1="0%" x2="100%" y2="100%">
			<stop offset="0%" stop-color="#34D399" />
			<!-- Vert émeraude moderne -->
			<stop offset="100%" stop-color="#059669" />
			<!-- Vert forêt profond -->
		</linearGradient>
		<!-- Gradient pour le cercle de statut -->
		<linearGradient id="statusGradient" x1="0%" y1="0%" x2="100%" y2="100%">
			<stop offset="0%" stop-color="#4ADE80" />
			<!-- Vert vif -->
			<stop offset="100%" stop-color="#22C55E" />
			<!-- Vert confirmation -->
		</linearGradient>
	</defs>
	<!-- Corps principal avec ombre portée subtile -->
	<g filter="url(#shadow)">
		<!-- Silhouette de la personne avec des formes arrondies -->
		<path d="M10 2a4 4 0 1 0 0 8 4 4 0 0 0 0-8zM3 13c0-1.1.9-2 2-2h10a2 2 0 0 1 2 2c0 1.7-.8 3-2.1 3.8C13.6 17.6 11.9 18 10 18s-3.6-.4-4.9-1.2C3.8 16 3 14.7 3 13z" fill="url(#personGradient)" stroke="none" />
		<!-- Cercle de statut avec effet de profondeur -->
		<circle cx="14.5" cy="14.5" r="4.5" fill="url(#statusGradient)" />
		<!-- Symbole de validation avec effet de relief -->
		<path d="M16.8 12.6a.5.5 0 0 1 0 .7l-3 3a.5.5 0 0 1-.7 0l-1-1a.5.5 0 0 1 .7-.7l.6.6 2.7-2.6a.5.5 0 0 1 .7 0z" fill="white" stroke="none" />
	</g>
	<!-- Filtre pour l'ombre portée subtile -->
	<defs>
		<filter id="shadow" x="-1" y="-1" width="22" height="22">
			<feDropShadow dx="0" dy="1" stdDeviation="0.5" flood-opacity="0.2" />
		</filter>
	</defs>
</svg>
